<?xml version="1.0"?>
<svg width="59.99999999999999" height="59.99999999999999" xmlns="http://www.w3.org/2000/svg" xmlns:svg="http://www.w3.org/2000/svg" xmlns:se="http://svg-edit.googlecode.com">
 <defs>
  <clipPath id="clip-path">
   <rect data-name="Rectangle 918" fill="none" height="60" id="Rectangle_918" transform="translate(-14.1188 -0.778968)" width="60" x="-1.94742" y="0.098371"/>
  </clipPath>
 </defs>
 <g class="layer">
  <title>Layer 1</title>
  <g data-name="Groupe 1586" id="Groupe_1586">
   <g clip-path="url(#clip-path)" data-name="Groupe 1585" id="Groupe_1585">
    <path d="m19.933788,31.791403l0,-14.186a5,5 0 1 0 -10,0l0,14.186a8,8 0 1 0 10,0" data-name="Tracé 350" fill="#14202c" id="Tracé_350"/>
    <path d="m17.350788,34.018403l0,-16.436a2.417,2.417 0 1 0 -4.833,0l0,16.436a4.834,4.834 0 1 0 4.833,0" data-name="Tracé 351" fill="#fff" id="Tracé_351"/>
    <path d="m14.933788,38.031403l0,0a1,1 0 0 1 -1,-1l0,-13a1,1 0 0 1 2,0l0,13a1,1 0 0 1 -1,1" data-name="Tracé 352" fill="#14202c" id="Tracé_352"/>
    <path d="m18.433788,38.241403a3.5,3.5 0 1 1 -3.5,-3.5a3.5,3.5 0 0 1 3.5,3.5" data-name="Tracé 353" fill="#14202c" id="Tracé_353"/>
   </g>
  </g>
  <text fill="#000000" font-family="serif" font-size="24" id="svg_2" stroke="#000000" stroke-width="0" text-anchor="middle" x="38.7147" xml:space="preserve" y="37.030183">23</text>
 </g>
</svg>